<?xml version="1.0" standalone="no"?>
<!DOCTYPE svg PUBLIC "-//W3C//DTD SVG 20010904//EN"
 "http://www.w3.org/TR/2001/REC-SVG-20010904/DTD/svg10.dtd">
<svg version="1.0" xmlns="http://www.w3.org/2000/svg"
 width="360.000000pt" height="360.000000pt" viewBox="0 0 360.000000 360.000000"
 preserveAspectRatio="xMidYMid meet">

<g transform="translate(0.000000,360.000000) scale(0.100000,-0.100000)"
fill="#ff0d00" stroke="none">
<path d="M1463 2518 c-26 -5 -51 -20 -66 -37 -23 -28 -24 -28 -36 -9 -10 16
-20 19 -47 15 -52 -9 -154 -63 -204 -108 l-45 -41 46 36 c25 20 49 36 53 36 4
0 -5 -18 -21 -40 l-28 -40 -97 2 c-106 2 -123 -5 -133 -53 -4 -16 -11 -29 -16
-29 -6 0 -7 9 -4 20 10 30 -1 24 -24 -14 -26 -41 -27 -53 -3 -35 14 11 15 11
5 -1 -7 -8 -14 -25 -14 -40 -1 -20 -3 -21 -6 -5 -2 11 -15 28 -28 37 l-24 18
-12 -58 c-19 -81 -19 -491 -1 -552 19 -63 33 -69 137 -70 108 0 132 12 141 71
4 22 10 42 14 44 18 11 38 -9 45 -42 22 -116 85 -210 169 -249 42 -20 67 -24
145 -24 120 0 177 19 248 84 l53 48 153 -11 c83 -6 222 -13 307 -16 303 -11
342 -15 375 -38 65 -46 252 -29 382 35 63 31 69 37 85 83 26 72 48 186 48 245
0 48 -1 50 -27 50 -80 0 -110 13 -41 18 18 2 37 8 43 13 7 8 4 9 -11 5 -35
-11 -73 41 -44 59 6 3 10 12 10 18 0 8 -2 9 -8 1 -20 -30 -101 -47 -103 -21 0
6 -3 21 -5 32 -3 11 -6 39 -8 62 -2 23 -11 50 -20 58 -9 9 -16 12 -16 7 0 -4
-14 -7 -30 -4 -17 2 -38 -2 -47 -9 -11 -9 -14 -10 -9 -2 5 9 2 11 -8 7 -9 -3
-13 -11 -9 -18 4 -6 0 -6 -9 2 -39 31 -14 -60 29 -110 11 -12 11 -18 2 -24 -8
-5 -10 -3 -4 6 5 9 4 11 -4 6 -9 -6 -9 -11 -1 -21 8 -10 8 -14 -2 -17 -8 -3
-6 -7 6 -11 12 -5 15 -3 11 6 -4 6 0 4 8 -6 11 -14 16 -15 20 -5 4 8 6 7 6 -4
1 -16 -9 -17 -121 -12 -68 4 -126 9 -130 13 -4 3 25 4 63 3 98 -5 119 1 119
37 0 50 -57 161 -82 161 -6 0 -4 -8 5 -17 22 -25 57 -110 57 -139 0 -24 -1
-24 -84 -21 -59 1 -82 5 -79 14 5 13 -14 12 -37 -1 -12 -7 -13 -6 -2 5 16 17
16 34 -1 21 -13 -11 -41 -1 -35 13 1 4 -8 10 -21 12 -14 2 -31 9 -40 16 -12 9
-13 9 -7 0 4 -7 3 -13 -2 -13 -6 0 -13 7 -16 16 -3 8 -10 12 -16 9 -5 -3 -10
-1 -10 6 0 7 -7 4 -15 -7 -14 -18 -14 -18 -10 3 3 16 0 20 -11 16 -7 -3 -11
-10 -7 -17 4 -6 -1 -5 -10 3 -18 14 -23 26 -8 16 5 -3 13 0 17 7 4 7 3 10 -1
5 -5 -4 -17 0 -27 10 -10 9 -18 13 -18 8 0 -4 -6 -2 -14 4 -9 8 -16 8 -20 2
-4 -6 -14 -7 -24 -4 -14 6 -15 4 -4 -9 9 -11 10 -18 2 -23 -6 -4 -9 -2 -8 3 2
6 -1 10 -7 10 -5 0 -9 -5 -7 -11 2 -6 -6 -3 -17 7 -23 21 -29 35 -7 17 10 -8
16 -9 21 -1 3 5 -1 10 -10 10 -10 0 -13 5 -9 13 4 6 -2 4 -13 -6 -20 -18 -21
-18 -38 5 -10 13 -15 16 -12 7 3 -9 -4 -21 -16 -29 -20 -12 -21 -12 -8 4 13
15 12 17 -12 12 -15 -2 -30 -7 -35 -10 -5 -3 -9 1 -9 8 0 7 10 12 23 10 13 -1
29 5 36 14 11 15 11 15 -3 5 -12 -10 -18 -10 -29 0 -10 9 -11 9 -6 0 10 -18
-4 -16 -28 5 -20 16 -20 16 -7 0 10 -13 10 -18 2 -18 -7 0 -9 -5 -5 -12 6 -10
5 -10 -8 -1 -8 7 -19 9 -23 5 -5 -4 -5 -1 -1 6 4 7 12 9 18 6 7 -4 8 -2 4 4
-4 6 -14 8 -23 5 -9 -4 -14 -2 -10 3 3 6 -9 10 -28 10 -26 0 -32 -3 -23 -13 6
-7 14 -11 17 -8 4 2 8 -2 8 -9 0 -11 -7 -11 -34 2 -18 9 -33 19 -33 22 0 8 -7
9 -74 14 l-49 3 46 -24 c26 -13 59 -25 75 -27 27 -3 165 -86 143 -86 -27 0
-137 43 -175 69 -69 47 -73 46 -18 -6 28 -27 52 -53 52 -57 0 -8 -51 -1 -115
15 -68 17 -73 20 -50 30 16 8 15 8 -7 4 -16 -3 -28 -1 -28 5 0 5 -7 10 -15 10
-8 0 -15 6 -15 14 0 22 -16 28 -43 15 -20 -9 -30 -8 -51 6 -14 10 -26 23 -26
30 0 16 43 35 83 36 l32 0 -40 15 c-22 8 -62 20 -90 26 -27 6 -45 13 -38 15 7
2 40 -3 74 -12 51 -13 73 -13 113 -5 28 7 85 10 126 8 l75 -3 -55 -17 c-30 -9
-65 -18 -78 -20 -12 -2 -24 -7 -25 -13 -1 -6 31 -7 83 -5 47 3 200 5 340 4
268 -1 271 6 12 26 -80 6 -148 13 -151 15 -18 19 333 -12 472 -41 88 -18 147
-18 147 0 0 7 15 17 32 22 47 14 48 40 2 59 -48 20 -61 19 -69 -5 -6 -18 -22
-6 -118 94 l-112 114 -85 27 c-209 65 -635 105 -777 73z m-121 -77 c-5 -35
-67 -167 -83 -177 -11 -6 -12 -5 -2 7 22 27 33 66 18 66 -7 0 -11 -6 -8 -13 2
-6 -1 -15 -8 -20 -7 -4 -10 -3 -5 4 3 6 2 14 -4 17 -6 4 -10 3 -9 -2 6 -33 -2
-51 -21 -46 -11 3 -20 12 -20 20 0 8 -13 20 -29 26 l-29 11 31 45 c18 25 35
49 38 54 8 11 98 37 119 34 10 -2 14 -11 12 -26z m964 -46 c30 -12 199 -173
191 -181 -4 -4 -75 20 -83 28 -3 4 5 4 18 1 35 -8 -97 124 -147 148 -47 22
-30 26 21 4z m-604 -39 c21 -2 49 -13 64 -25 15 -12 35 -21 46 -21 15 0 17 -5
12 -27 -6 -21 -4 -25 9 -20 8 3 23 -1 34 -8 10 -8 33 -15 51 -15 17 0 32 -5
32 -12 0 -8 -36 -9 -137 -4 -76 4 -212 9 -303 12 -91 4 -167 8 -169 9 -2 2 3
23 10 46 16 49 28 54 151 67 69 7 115 7 200 -2z m353 -71 c222 -27 434 -77
476 -112 16 -14 28 -28 25 -31 -3 -3 -11 0 -18 6 -21 16 -351 58 -510 64 -32
1 -58 4 -58 5 0 2 6 12 12 23 10 15 10 22 0 32 -17 17 -15 30 6 24 9 -3 40 -8
67 -11z m-1032 -7 c35 -17 30 -27 -17 -43 -21 -7 -50 -25 -65 -39 -20 -20 -30
-23 -39 -14 -16 16 11 64 51 88 38 24 36 23 70 8z m124 -77 c50 -20 57 -20
137 -6 58 10 97 12 123 6 l38 -9 -47 -1 c-52 -1 -118 -21 -191 -57 -45 -22
-50 -23 -65 -7 -9 9 -16 18 -14 20 1 2 2 9 1 16 0 9 -2 9 -6 -1 -2 -6 -9 -10
-14 -6 -5 3 -9 0 -9 -7 0 -7 -3 -9 -7 -6 -3 4 -13 1 -21 -6 -13 -10 -14 -9 -7
2 6 11 5 12 -6 5 -20 -12 -40 -14 -33 -3 3 5 11 6 17 2 7 -4 6 0 -2 10 -15 18
-26 23 -16 7 3 -5 1 -10 -4 -10 -10 0 -15 14 -12 33 1 5 -3 6 -9 2 -5 -3 -10
-1 -10 6 0 7 -3 9 -6 6 -4 -4 -1 -13 6 -22 7 -9 10 -18 6 -22 -3 -3 -6 -1 -6
7 0 10 -3 10 -17 -1 -15 -11 -16 -11 -6 0 6 7 9 19 6 27 -3 8 8 19 30 27 19 8
38 20 41 26 5 7 14 6 29 -3 12 -8 46 -24 74 -35z m12 29 c23 -6 41 -13 41 -16
0 -9 -63 7 -90 23 -14 8 -17 12 -8 9 9 -3 35 -10 57 -16z m-174 -100 c3 -6 -1
-7 -9 -4 -18 7 -21 14 -7 14 6 0 13 -4 16 -10z m963 -65 c-3 -3 -9 2 -12 12
-6 14 -5 15 5 6 7 -7 10 -15 7 -18z m303 -43 c0 -14 2 -14 8 2 5 12 10 15 14
9 4 -6 0 -16 -8 -23 -12 -10 -16 -8 -24 11 -8 20 -10 21 -10 5 -1 -11 -4 -17
-7 -13 -4 3 -4 13 0 22 7 20 26 10 27 -13z m90 -55 c-10 -9 -11 -8 -5 6 3 10
9 15 12 12 3 -3 0 -11 -7 -18z m21 -9 c-8 -8 -9 -4 -5 13 4 13 8 18 11 10 2
-7 -1 -18 -6 -23z m-1012 -8 c11 -7 4 -10 -26 -10 -22 0 -43 -3 -47 -6 -3 -3
3 -31 14 -61 19 -55 25 -92 13 -81 -3 4 -16 37 -30 75 -23 65 -24 66 -19 23 2
-25 7 -63 11 -85 4 -29 3 -36 -5 -25 -5 8 -13 38 -17 67 -3 29 -9 53 -12 53
-3 0 -17 -10 -30 -22 l-25 -23 17 27 c35 54 120 91 156 68z m1098 -13 c21 -16
14 -36 -10 -30 -24 6 -58 31 -58 43 0 10 52 0 68 -13z m395 -94 c-7 -2 -19 -2
-25 0 -7 3 -2 5 12 5 14 0 19 -2 13 -5z m-2066 -35 c-3 -7 -5 -2 -5 12 0 14 2
19 5 13 2 -7 2 -19 0 -25z m1823 12 c0 -13 -11 -13 -30 0 -12 8 -11 10 8 10
12 0 22 -4 22 -10z m-1220 -24 c0 -3 -4 -8 -10 -11 -5 -3 -10 -1 -10 4 0 6 5
11 10 11 6 0 10 -2 10 -4z m-33 -22 c-3 -3 -12 -4 -19 -1 -8 3 -5 6 6 6 11 1
17 -2 13 -5z m-37 -8 c0 -2 -7 -6 -15 -10 -8 -3 -15 -1 -15 4 0 6 7 10 15 10
8 0 15 -2 15 -4z m75 -26 c3 -5 -1 -10 -9 -10 -9 0 -16 5 -16 10 0 6 4 10 9
10 6 0 13 -4 16 -10z m-47 -43 c5 -27 -17 -50 -34 -36 -15 12 -19 41 -7 53 12
12 38 1 41 -17z m-258 3 c0 -5 -5 -10 -11 -10 -5 0 -7 5 -4 10 3 6 8 10 11 10
2 0 4 -4 4 -10z m1587 -6 c-3 -3 -12 -4 -19 -1 -8 3 -5 6 6 6 11 1 17 -2 13
-5z"/>
<path d="M1521 2323 c-22 -18 -22 -51 -1 -38 5 3 22 -1 38 -9 16 -8 46 -16 68
-18 34 -3 39 0 42 19 7 47 -103 81 -147 46z"/>
<path d="M1140 2170 c0 -5 7 -7 15 -4 8 4 15 8 15 10 0 2 -7 4 -15 4 -8 0 -15
-4 -15 -10z"/>
<path d="M1305 1699 c-10 -15 3 -25 16 -12 7 7 7 13 1 17 -6 3 -14 1 -17 -5z"/>
<path d="M1645 2160 c4 -6 11 -8 16 -5 14 9 11 15 -7 15 -8 0 -12 -5 -9 -10z"/>
<path d="M1665 2060 c-3 -5 -1 -10 4 -10 6 0 11 5 11 10 0 6 -2 10 -4 10 -3 0
-8 -4 -11 -10z"/>
<path d="M1700 2060 c0 -5 5 -10 10 -10 6 0 10 5 10 10 0 6 -4 10 -10 10 -5 0
-10 -4 -10 -10z"/>
<path d="M2540 1945 c0 -5 5 -17 10 -25 9 -13 10 -13 10 0 0 13 1 13 10 0 9
-13 10 -13 10 0 0 13 1 13 11 0 9 -13 10 -13 6 0 -2 8 -12 15 -23 15 -10 -1
-22 4 -26 10 -5 6 -8 6 -8 0z"/>
</g>
</svg>
