<?xml version="1.0" standalone="no"?>
<!DOCTYPE svg PUBLIC "-//W3C//DTD SVG 20010904//EN"
 "http://www.w3.org/TR/2001/REC-SVG-20010904/DTD/svg10.dtd">
<svg version="1.0" xmlns="http://www.w3.org/2000/svg"
 width="1080.000000pt" height="1080.000000pt" viewBox="0 0 1080.000000 1080.000000"
 preserveAspectRatio="xMidYMid meet">

<g transform="translate(0.000000,1080.000000) scale(0.100000,-0.100000)"
fill="#ffffff" stroke="none">
<path d="M5901 9740 c-104 -15 -196 -47 -266 -95 l-65 -45 -86 15 c-124 22
-303 20 -396 -4 -143 -37 -254 -112 -320 -216 -34 -53 -46 -64 -76 -70 -51 -9
-103 -38 -140 -76 -29 -30 -39 -34 -101 -37 -91 -5 -159 14 -331 93 -325 149
-467 171 -577 88 -18 -13 -33 -27 -33 -31 0 -4 35 -7 78 -7 70 0 84 -4 156
-40 44 -22 81 -45 83 -50 2 -6 -18 -18 -44 -27 -27 -10 -93 -48 -147 -85 -115
-79 -158 -133 -177 -221 -12 -61 -7 -167 12 -220 10 -30 8 -35 -34 -82 -24
-27 -63 -84 -86 -127 -30 -56 -55 -89 -92 -118 -104 -82 -242 -261 -305 -393
-113 -239 -119 -454 -19 -651 18 -36 46 -81 62 -100 28 -32 29 -37 17 -70 -13
-37 -28 -162 -40 -313 -8 -105 -25 -137 -89 -168 -39 -19 -44 -25 -31 -32 38
-21 121 -21 170 0 l47 21 -29 -37 c-45 -56 -60 -66 -147 -97 -44 -15 -102 -39
-128 -52 -55 -28 -127 -89 -127 -109 0 -8 1 -14 3 -14 1 0 31 9 67 21 95 30
241 29 293 -1 21 -12 60 -25 88 -29 l50 -6 -53 -34 c-99 -65 -225 -87 -313
-56 -21 8 -41 12 -44 9 -12 -11 109 -108 173 -139 114 -55 224 -64 357 -30 24
6 31 0 82 -77 70 -106 154 -193 208 -217 24 -11 46 -18 49 -16 4 2 2 35 -3 72
-5 41 -6 191 -1 373 4 168 8 442 10 610 2 234 6 326 19 395 9 50 19 160 22
246 l6 156 66 51 c90 68 226 211 282 296 l47 70 109 -3 c170 -4 277 32 417
139 64 49 66 50 109 40 141 -31 291 -19 394 33 67 34 78 49 65 87 -11 29 -10
30 16 24 15 -4 62 -19 105 -34 42 -15 77 -24 77 -21 0 4 -22 29 -50 56 -27 27
-48 50 -46 53 5 5 163 -75 170 -87 9 -14 -53 -75 -103 -100 -60 -31 -160 -51
-261 -51 l-85 -1 23 -19 c35 -29 145 -60 211 -60 74 0 197 32 274 70 34 17 64
27 68 23 13 -14 27 -82 22 -105 l-6 -23 27 25 c15 13 32 44 40 69 l13 45 14
-54 c7 -30 14 -102 14 -160 0 -97 -8 -139 -42 -230 -3 -8 43 32 101 90 70 68
116 123 132 156 60 122 35 258 -75 404 -22 29 -39 55 -38 57 6 5 609 -187 638
-203 4 -2 -2 -45 -13 -96 -26 -123 -21 -273 10 -334 12 -23 34 -52 50 -66 16
-13 40 -48 54 -78 14 -30 46 -84 72 -119 25 -36 44 -67 41 -69 -3 -3 -33 9
-67 26 -34 17 -64 30 -65 28 -1 -1 5 -26 15 -55 10 -33 35 -74 66 -109 69 -79
135 -170 151 -209 7 -17 26 -87 40 -155 42 -188 93 -283 184 -339 l48 -30 23
-239 c13 -132 27 -237 31 -235 4 3 11 24 15 48 l8 42 7 -55 c16 -114 44 -166
147 -272 52 -53 98 -102 102 -108 15 -24 19 20 10 107 -5 48 -10 92 -10 96 0
4 12 -1 28 -12 15 -11 37 -22 50 -26 l22 -6 -20 38 c-19 38 -44 145 -38 163 2
5 28 -21 58 -59 30 -38 57 -67 59 -65 2 1 -13 32 -33 68 -20 35 -36 66 -36 69
0 2 22 7 48 10 68 8 325 101 406 148 38 21 73 39 78 39 18 0 57 -107 73 -200
18 -104 31 -125 100 -165 101 -59 200 -54 277 15 l43 38 -27 21 c-36 28 -60
105 -56 177 l3 58 39 -34 c46 -41 93 -135 102 -202 4 -27 9 -48 13 -48 11 0
59 84 71 125 6 22 10 72 8 111 l-3 70 44 -27 c63 -41 136 -55 200 -39 28 6 51
16 51 21 0 4 -19 13 -42 20 -55 14 -119 79 -137 139 -7 25 -20 66 -28 92 -18
60 -59 121 -103 153 -37 27 -117 55 -159 55 -22 0 -17 6 34 40 148 99 304 133
413 92 41 -16 52 -17 52 -6 0 23 -56 79 -108 107 -110 60 -256 70 -404 29
l-68 -19 54 58 c30 32 65 82 79 111 25 53 45 128 33 128 -3 0 -29 -18 -58 -40
-60 -46 -139 -78 -207 -86 l-46 -5 55 24 c79 34 129 68 177 120 39 42 63 91
50 103 -3 3 -29 -2 -58 -10 -29 -9 -76 -16 -104 -16 -102 0 -222 85 -279 197
-23 47 -66 163 -66 181 0 4 33 -8 74 -28 182 -89 404 -93 565 -10 42 21 80 59
48 47 -10 -4 -47 -12 -82 -19 -165 -30 -325 51 -450 227 -55 77 -78 125 -130
261 -51 133 -99 207 -193 296 -115 108 -270 187 -429 218 l-62 12 34 42 c46
57 93 160 106 234 14 78 0 165 -38 240 -55 110 -214 224 -359 258 -90 21 -217
14 -297 -17 l-58 -22 -22 20 c-106 97 -537 191 -746 163z m-1568 -1455 c28 -8
68 -15 89 -15 21 0 38 -4 38 -9 0 -16 -70 -71 -128 -100 -73 -37 -272 -95
-272 -79 0 2 16 39 35 83 19 44 42 112 51 152 l16 72 60 -45 c33 -24 83 -51
111 -59z"/>
<path d="M4851 7332 c-1 -18 15 -82 35 -143 19 -60 39 -148 44 -194 7 -70 38
-165 54 -165 2 0 -2 21 -10 47 -8 25 -14 80 -14 122 0 77 -13 124 -83 301 -23
58 -26 61 -26 32z"/>
<path d="M5221 7249 c-1 -55 13 -115 31 -134 11 -12 2 59 -17 138 l-13 52 -1
-56z"/>
<path d="M5056 7250 c6 -42 53 -164 60 -157 4 4 -54 188 -61 196 -3 3 -3 -15
1 -39z"/>
<path d="M4655 7142 c0 -92 -4 -124 -18 -151 -9 -19 -15 -36 -13 -38 9 -9 56
61 62 93 9 49 -1 155 -17 187 -13 23 -14 15 -14 -91z"/>
<path d="M5655 7020 l27 -53 -75 7 c-41 4 -89 11 -108 16 -62 18 -95 13 -123
-20 -14 -17 -27 -45 -30 -63 -12 -75 -17 -147 -11 -147 4 0 28 23 53 52 l47
52 5 -30 5 -29 170 0 c94 0 199 4 235 9 l65 9 -34 -32 c-19 -17 -32 -34 -29
-36 2 -3 40 -1 84 4 43 5 117 12 164 15 l85 6 -55 -30 c-63 -34 -40 -32 74 6
73 25 73 25 22 -33 -11 -13 -15 -23 -9 -23 25 0 289 53 296 59 4 4 -21 19 -55
33 l-62 25 54 29 55 28 -110 26 c-60 14 -146 38 -190 53 -132 43 -154 47 -303
57 -133 10 -161 16 -255 55 -16 7 -15 1 8 -45z"/>
<path d="M5206 7000 c-10 -36 12 -160 34 -195 17 -26 20 -27 20 -9 0 12 -5 34
-10 51 -6 16 -17 63 -24 104 -10 59 -14 69 -20 49z"/>
<path d="M4544 6950 c9 -71 47 -183 65 -188 10 -3 11 3 6 29 -9 44 -63 201
-71 208 -4 3 -4 -19 0 -49z"/>
<path d="M3897 6927 c-32 -20 -80 -49 -108 -63 -43 -21 -55 -34 -77 -82 -18
-39 -27 -74 -27 -112 l0 -54 40 -12 40 -12 -40 -3 -40 -4 43 -32 44 -32 -34
-15 c-32 -15 -27 -15 36 -1 l29 6 -29 30 -28 29 37 0 c43 0 46 9 13 47 l-24
27 41 18 c32 15 53 17 99 12 l59 -7 -6 35 -7 35 84 7 c46 4 115 10 153 14 39
4 131 4 205 0 74 -4 135 -6 136 -5 1 1 -38 49 -86 107 l-89 105 -203 0 -203 0
-58 -38z"/>
<path d="M4400 6965 c0 -4 27 -39 61 -77 33 -39 67 -81 76 -95 9 -13 18 -22
20 -20 8 9 -39 115 -60 134 -29 26 -97 67 -97 58z"/>
<path d="M5292 6930 c-17 -54 -7 -138 13 -118 3 3 5 41 3 84 l-3 79 -13 -45z"/>
<path d="M5166 6937 c-5 -15 -6 -50 -4 -77 l5 -49 -40 45 c-22 25 -42 43 -44
40 -3 -3 8 -28 23 -56 20 -36 40 -58 67 -72 21 -10 41 -18 43 -15 2 2 -3 24
-12 48 -9 24 -19 71 -23 104 -6 52 -8 56 -15 32z"/>
<path d="M4760 6879 c0 -30 5 -61 10 -69 7 -10 8 6 4 50 -8 82 -14 90 -14 19z"/>
<path d="M5317 6746 c-71 -26 -147 -102 -147 -147 0 -9 9 -27 20 -40 l20 -24
-9 25 c-6 18 -5 36 4 57 19 45 124 114 202 132 l38 9 -45 1 c-25 0 -62 -6 -83
-13z"/>
<path d="M5503 6731 c-11 -12 -25 -45 -32 -74 -6 -28 -23 -72 -36 -96 -31 -54
-31 -55 0 -35 32 21 71 87 79 136 4 20 14 39 22 42 25 10 62 7 69 -5 4 -6 -20
-56 -54 -111 -34 -56 -60 -102 -58 -104 1 -2 36 2 77 8 41 5 118 8 170 5 103
-6 289 7 385 27 33 7 71 9 85 5 14 -4 47 -7 73 -8 67 -1 57 16 -29 51 -38 16
-87 43 -109 60 -69 57 -275 103 -506 115 -110 5 -117 5 -136 -16z m155 -183
c10 -12 1 -16 -56 -24 l-67 -9 50 67 50 67 5 -43 c3 -24 11 -50 18 -58z m240
67 c2 -2 1 -13 -3 -24 -5 -17 -15 -21 -51 -21 -24 0 -44 3 -44 7 0 4 10 17 22
30 17 18 29 22 48 18 14 -4 27 -8 28 -10z m167 -5 c12 -4 27 -15 33 -23 11
-13 3 -18 -63 -32 -42 -10 -78 -15 -81 -13 -2 3 4 23 14 46 16 39 19 42 47 36
17 -4 39 -10 50 -14z"/>
<path d="M6418 6696 c-155 -22 -95 -42 67 -22 77 9 102 15 83 19 -54 13 -74
14 -150 3z"/>
<path d="M4315 6680 c-141 -16 -269 -41 -300 -59 -41 -24 -105 -117 -105 -153
0 -40 -15 -65 -52 -84 -24 -12 -28 -18 -17 -25 8 -5 26 -9 41 -9 22 0 32 8 48
41 16 31 25 39 38 34 46 -18 178 -16 353 5 194 23 251 37 112 27 -59 -5 -83
-3 -83 5 0 10 20 76 26 86 1 2 26 -9 56 -24 60 -31 208 -84 208 -75 0 6 -90
65 -231 152 -43 27 -55 39 -43 43 38 14 81 4 153 -38 42 -24 92 -51 111 -61
l35 -18 -20 23 c-35 39 -183 131 -217 135 -18 2 -69 -1 -113 -5z m-7 -157 c-2
-24 -8 -29 -36 -31 -31 -3 -33 -2 -28 25 2 15 5 29 5 31 1 1 15 2 32 2 27 0
30 -3 27 -27z m-234 -81 c-1 -2 -21 2 -43 8 l-41 11 27 35 27 36 16 -44 c9
-24 16 -44 14 -46z"/>
<path d="M4797 6599 c5 -68 3 -78 -14 -90 -27 -19 -43 -52 -42 -86 l1 -28 10
32 c6 18 24 47 39 65 23 25 29 41 29 77 -1 25 -7 60 -14 76 -13 27 -13 24 -9
-46z"/>
<path d="M6540 6641 c0 -5 14 -11 31 -15 47 -9 56 -7 35 9 -22 16 -66 20 -66
6z"/>
<path d="M5310 6466 c0 -22 71 -136 114 -183 48 -53 111 -101 75 -57 -8 10
-36 44 -61 74 -25 30 -64 82 -87 114 -22 33 -41 56 -41 52z"/>
<path d="M5555 6390 c11 -17 88 -58 130 -68 22 -6 72 -13 110 -16 l70 -6 -101
24 c-56 13 -124 36 -152 50 -56 28 -66 31 -57 16z"/>
<path d="M5242 5920 c10 -14 35 -54 55 -90 26 -45 39 -59 41 -47 6 29 -39 107
-78 136 l-35 26 17 -25z"/>
<path d="M8020 5884 c0 -65 -25 -225 -46 -294 -74 -249 -290 -439 -549 -482
l-80 -13 -42 -200 c-23 -110 -63 -281 -89 -380 -27 -106 -48 -214 -51 -262 -5
-77 -5 -83 14 -83 43 0 130 56 203 131 l76 76 109 5 c227 10 362 100 435 291
26 65 57 224 46 234 -2 3 -18 -2 -34 -11 -89 -46 -166 -36 -198 26 -21 40 -29
157 -16 213 7 26 10 32 11 17 2 -44 31 -88 74 -113 37 -21 54 -24 137 -23 105
0 172 18 230 62 l34 26 -39 8 c-69 15 -105 67 -105 155 0 68 -17 122 -51 166
l-30 37 65 0 c41 0 85 7 116 19 50 19 120 65 120 79 0 4 -26 20 -58 37 -85 43
-200 163 -245 254 l-37 74 0 -49z"/>
<path d="M5422 5721 c90 -80 113 -186 62 -290 -28 -56 -91 -111 -128 -111 -18
-1 -19 -2 -5 -10 45 -26 150 44 190 127 43 88 9 211 -75 271 -70 49 -94 57
-44 13z"/>
<path d="M4593 5658 c-46 -52 -93 -139 -123 -228 -18 -52 -64 -158 -104 -235
-83 -162 -117 -270 -115 -371 l2 -69 7 58 c15 120 35 184 88 287 31 58 81 157
113 220 45 90 59 111 64 95 20 -60 31 -78 62 -105 18 -17 38 -30 43 -30 4 0
17 -3 27 -6 10 -3 0 5 -21 18 -59 35 -81 85 -81 183 0 70 4 89 31 143 17 34
30 62 29 62 -1 0 -11 -10 -22 -22z"/>
<path d="M5181 5495 c-42 -13 -93 -53 -112 -87 -6 -12 10 -6 57 18 73 38 151
47 174 19 14 -17 46 -20 55 -5 9 15 -30 48 -72 59 -46 13 -47 13 -102 -4z"/>
<path d="M4676 5458 c-20 -27 -22 -68 -4 -50 17 17 48 15 83 -6 17 -10 52 -31
80 -47 l49 -28 -32 41 c-37 46 -122 112 -145 112 -9 0 -23 -10 -31 -22z"/>
<path d="M5760 5375 c52 -88 117 -172 195 -250 90 -90 147 -176 200 -306 41
-100 45 -83 9 33 -33 106 -51 141 -110 214 -61 75 -264 303 -295 329 l-23 20
24 -40z"/>
<path d="M7182 5338 c-55 -114 -63 -164 -72 -418 -7 -203 -11 -248 -33 -332
-48 -181 -144 -370 -262 -510 -58 -70 -214 -194 -327 -261 -83 -49 -66 -47 47
7 222 105 343 220 448 424 37 72 79 160 92 197 39 104 64 275 75 514 9 209 21
298 54 391 23 66 12 60 -22 -12z"/>
<path d="M3791 4826 c-17 -31 -45 -80 -61 -110 -36 -65 -69 -81 -137 -71 l-48
7 38 -40 c42 -43 40 -48 -20 -58 -58 -9 -107 17 -140 74 l-27 45 -14 -39 c-7
-21 -14 -73 -15 -115 -1 -102 32 -173 106 -228 88 -66 114 -76 200 -76 42 0
77 -3 77 -6 0 -26 -38 -105 -62 -129 l-30 -30 23 -48 c13 -26 41 -66 62 -89
l38 -42 -18 -33 c-19 -36 -24 -155 -10 -238 7 -43 6 -46 -26 -66 -28 -18 -43
-41 -76 -112 -3 -7 -35 -23 -71 -35 -127 -43 -211 -106 -256 -191 -27 -52 -32
-56 -94 -76 -269 -85 -661 -134 -1210 -150 -393 -12 -486 -21 -553 -55 -27
-14 -54 -25 -60 -25 -27 0 -87 -22 -87 -31 0 -26 216 -325 364 -504 125 -152
456 -482 606 -607 809 -668 1738 -1049 2753 -1129 306 -24 816 -3 1120 46 928
149 1789 565 2480 1196 85 79 100 99 73 99 -37 0 -437 206 -605 312 -133 84
-227 157 -309 239 l-70 70 18 42 c31 71 43 159 37 274 -13 265 -117 465 -373
713 -122 117 -270 238 -280 227 -26 -26 -55 -469 -42 -649 7 -110 52 -341 93
-482 14 -48 25 -88 25 -91 0 -18 -279 1 -605 41 -270 33 -337 34 -391 6 -42
-22 -84 -75 -84 -107 0 -25 -20 -18 -264 87 -410 176 -884 427 -1191 631 -375
250 -541 423 -628 657 -48 130 -72 231 -92 390 -9 74 -19 149 -22 165 -2 17
23 -40 57 -125 78 -198 178 -406 234 -484 50 -69 177 -195 281 -278 132 -106
315 -199 457 -233 148 -35 440 -28 618 16 112 28 192 65 323 150 59 39 154 93
210 119 103 50 171 90 151 90 -50 0 -255 -94 -388 -179 -148 -94 -351 -149
-586 -158 -166 -6 -298 12 -448 62 -180 60 -325 157 -502 334 -128 128 -177
204 -265 416 -26 61 -73 169 -105 240 -35 76 -74 186 -96 265 -20 74 -40 141
-44 149 -5 9 -17 -4 -39 -43z m-122 -2027 c17 -28 30 -53 29 -55 -2 -2 -100
-30 -218 -64 -317 -89 -544 -129 -881 -154 -108 -8 -184 -18 -188 -25 -4 -6
-50 -18 -102 -27 -52 -9 -136 -29 -187 -46 -91 -30 -114 -43 -240 -133 -35
-25 -71 -45 -81 -45 -11 0 -39 34 -75 90 -32 50 -57 92 -55 93 2 2 22 8 44 14
22 6 126 47 232 91 300 126 307 128 650 157 356 31 407 38 543 75 89 25 156
38 370 73 14 2 48 5 76 6 l51 1 32 -51z m4442 -665 c239 -135 445 -253 458
-261 l23 -15 -20 -21 -21 -20 -468 188 c-257 103 -471 191 -476 194 -4 4 5 36
19 72 14 35 30 74 35 87 5 12 10 22 12 22 2 0 199 -111 438 -246z"/>
<path d="M5015 4715 c-163 -52 -189 -57 -247 -45 -55 12 -60 12 -81 -9 -26
-24 -65 -27 -131 -9 -38 10 -48 9 -70 -5 -38 -25 -32 -32 27 -33 28 -1 73 -2
99 -3 30 -1 60 5 86 18 33 17 45 18 83 10 53 -12 95 -7 213 27 85 25 90 26
140 10 91 -28 144 -29 299 -6 140 20 153 20 250 6 107 -16 167 -11 194 17 12
12 -3 15 -114 20 -197 10 -252 8 -332 -13 -76 -20 -117 -19 -236 10 -37 9
-158 12 -180 5z"/>
<path d="M4800 4471 c0 -4 17 -20 38 -35 l38 -26 224 0 223 0 69 32 c37 17 67
32 65 34 -2 2 -34 -6 -72 -18 -65 -19 -85 -20 -281 -14 -148 4 -225 11 -254
21 -50 18 -50 18 -50 6z"/>
</g>
</svg>
